<svg xmlns="http://www.w3.org/2000/svg" viewBox="0 0 265.91 63.14"><defs><style>.cls-1{fill:#272927;}</style></defs><g id="Layer_2" data-name="Layer 2"><g id="Layer_1-2" data-name="Layer 1"><path class="cls-1" d="M14.47,36.73a36.23,36.23,0,0,0,3,5.08A20.93,20.93,0,0,0,21.6,46a10.52,10.52,0,0,0,5.73,2c1.81-.09,3.33.05,4.7-1.1a6.26,6.26,0,0,0,2.29-3.07A9.3,9.3,0,0,0,34,37c-.42-.91-.49-1.93-1-2.8-1.37-2.33-2.58-4.78-4.56-6.73a3.56,3.56,0,0,0-3-1.24c-1.36.16-1.75,1-.94,2.12a16.29,16.29,0,0,1,1.59,2.24c1.42,2.82,3,5.62,3,8.86,0,.84.07,1.77-1,2.14a3.52,3.52,0,0,1-3.3-.3c-2.24-1.8-2.54-2.84-3.8-4.36a29.23,29.23,0,0,1-2.24-4,13.06,13.06,0,0,1-1.58-6.24c0-1.54-.23-3.64,1-5a5.4,5.4,0,0,1,2.28-1.88,5.09,5.09,0,0,1,3.89,0,25,25,0,0,1,6.31,4,49.33,49.33,0,0,1,4.63,5.66c.84,1.24,1.45,2.64,2.24,3.92a38.09,38.09,0,0,1,3.31,7.83,40.68,40.68,0,0,1,1.16,4c.09.61.47,4.62.07,5.94A16.84,16.84,0,0,1,38.69,56c-1.11,1.05-3.28,1.24-5,1.38a21.52,21.52,0,0,1-2.36.21,13,13,0,0,1-2.12-.47.62.62,0,0,0-.14,0,31.53,31.53,0,0,1-7-3.52A34,34,0,0,1,19,51.3a9.82,9.82,0,0,1-1.3-1.19,52.1,52.1,0,0,1-7.41-9.79,34,34,0,0,1-3.61-8.79c-.44-1.7-1.16-4.57-1.26-5.25a32.51,32.51,0,0,1,.12-5.05,22.85,22.85,0,0,1,1.4-5.67c1.39-3.57,3.42-5.13,6.21-7a13.93,13.93,0,0,1,9-2.91,18.85,18.85,0,0,1,7,1.38,26.19,26.19,0,0,1,4.27,2,29.67,29.67,0,0,1,3,2.38,79.55,79.55,0,0,1,5.85,5.76,42.83,42.83,0,0,1,3.91,5,36.47,36.47,0,0,1,2.68,4.45c.84,1.47,1.59,2.92,2.28,4.43a4.94,4.94,0,0,0,2.33,2.66c1.05.44,1.73-.21,2-1.3a10.62,10.62,0,0,0-.89-7,37.93,37.93,0,0,0-2.95-5.74c-1.17-1.81-2.68-3.42-4-5.2a10.12,10.12,0,0,0-1-1.21c-1.07-1.07-2.14-2.1-3.21-3.17-.4-.37-.75-.79-1.12-1.19a11.38,11.38,0,0,0-1.14-1.16C39.53,6.35,38,5.09,36.34,4a9.34,9.34,0,0,0-2.4-1.09C32.2,2.25,30.5,1.5,28.8.87A19.53,19.53,0,0,0,22.37,0a18.14,18.14,0,0,0-6.94,1,23.06,23.06,0,0,0-5.5,3A23.88,23.88,0,0,0,5,8.17a21.65,21.65,0,0,0-3.21,5.5A23.8,23.8,0,0,0,0,23.3c.07,2.07.74,7.81,1,8.58a45.16,45.16,0,0,0,3.31,8.69,68.48,68.48,0,0,0,4.66,7.72c1.44,2.12,3.47,3.89,5.12,5.92a16.59,16.59,0,0,0,5.38,4c1.89,1,3.54,2.54,5.5,3.26,2.58.94,5.24,2,8.13,1.54a37,37,0,0,0,5-.63,12.31,12.31,0,0,0,6.87-4.8,14.35,14.35,0,0,0,2.52-6,26.8,26.8,0,0,0,.16-7A35.74,35.74,0,0,0,46,37.75c-.4-.67-2.26-4.45-3.17-6.76a22.78,22.78,0,0,0-3.86-5.87,57.29,57.29,0,0,0-6.15-6.79,24.59,24.59,0,0,0-5.38-3.21,28,28,0,0,0-4.08-.86c-2.14-.14-4.14-.33-6.17,1a12.56,12.56,0,0,0-4.54,5.55,17.91,17.91,0,0,0-.56,10.63,18.43,18.43,0,0,0,.79,2.19,26.43,26.43,0,0,0,1.63,3.08"/><path class="cls-1" d="M123.88,40.53V25.94c0-3.52-2.67-6-6.5-6-2.85,0-5.39,1.35-7.75,4.05h-.31l-.25-3.43c0-.37-.36-.62-.91-.46l-7.11,1.87a.53.53,0,0,0-.25.95l1.93,1.65v16l-1.65,1.53a.44.44,0,0,0,.3.77h9.54a.44.44,0,0,0,.27-.77l-1.65-1.53v-15a6.65,6.65,0,0,1,4.16-1.68,3.14,3.14,0,0,1,3.38,3.4V40.41l-1.75,1.65a.45.45,0,0,0,.31.77h9.59a.45.45,0,0,0,.3-.77Z"/><path class="cls-1" d="M164.94,40.17l-1.93-1V25.82c0-3.62-3.25-5.91-7.93-5.91a11.44,11.44,0,0,0-10.27,6.19c-.18.37-.25.83.12,1.07a.77.77,0,0,0,1.1-.12c1.57-1.57,3.83-3.16,6.37-3.16s3.84,1.19,3.84,3.13v2.33l-2.56.91-.53.19-.69.24c-6.06,2.18-8.75,4.51-8.75,7.79a4.86,4.86,0,0,0,5.2,5c2.36,0,4.9-1.25,7.24-3.61h.3a4,4,0,0,0,4,3.61c1.63,0,3.06-.79,4.57-2.32a.72.72,0,0,0,.27-.55A.45.45,0,0,0,164.94,40.17Zm-8.7-1.75a3.87,3.87,0,0,1-3,1.38,3.31,3.31,0,0,1-3.43-3.47c0-1.87,1.21-3.36,3.79-4.45l.54-.21,2.05-.76Z"/><path class="cls-1" d="M98.82,41l-1.64-1.68V20.46a.51.51,0,0,0-.62-.49l-7.77,1.94a.5.5,0,0,0-.23.84l1.82,1.82V37.82a6.52,6.52,0,0,1-4,1.68c-2,0-3.23-1.25-3.23-3.41V20.46a.5.5,0,0,0-.62-.49l-7.76,1.9a.5.5,0,0,0-.23.84l1.82,1.82v12.9c0,3.53,2.62,6,6.36,6,2.76,0,5.29-1.33,7.61-4h.31l.52,3.47a.5.5,0,0,0,.6.42l6.85-1.46A.5.5,0,0,0,98.82,41Z"/><path class="cls-1" d="M141.05,39.51a4.32,4.32,0,0,1-1.86.37,3.08,3.08,0,0,1-2.15-.75,3.21,3.21,0,0,1-.86-2.44V23h4.72a.49.49,0,0,0,.49-.43l.22-1.45a.51.51,0,0,0-.51-.57h-4.92V16.23a.5.5,0,0,0-.81-.39l-8,6.29a.5.5,0,0,0,.31.89h1.67V38.5a4.7,4.7,0,0,0,.82,2.78c.1.13.19.25.29.36a6.26,6.26,0,0,0,4.66,1.81,7.92,7.92,0,0,0,4.19-1.07,7.62,7.62,0,0,0,2.31-2.12A.5.5,0,0,0,141.05,39.51Z"/><path class="cls-1" d="M182,19.93c-2.4,0-4.25,1-6.49,3.69h-.26l-.3-3.2a.52.52,0,0,0-.63-.44l-7.37,1.88a.5.5,0,0,0-.22.84l1.82,1.78V49.11l-1.68,1.53a.43.43,0,0,0-.14.42.45.45,0,0,0,.44.35h9.54a.43.43,0,0,0,.27-.77l-1.57-1.44-.08-.07V42.89a6.53,6.53,0,0,0,2,.47l.46,0h0a8.67,8.67,0,0,0,1,.05c6.88,0,12-5.41,12-12.77C190.81,24.44,187.07,19.93,182,19.93Zm-3.61,21.71h-.46l-.45-.05a4.11,4.11,0,0,1-2.15-.88V25.13a2.47,2.47,0,0,1,.76-.64,3.26,3.26,0,0,1,1.7-.44c3.78,0,6.53,4.05,6.53,9.59C184.27,38.64,182,41.64,178.34,41.64Z"/><path class="cls-1" d="M239,35.55a8.36,8.36,0,0,1-6.31,2.89,8.18,8.18,0,0,1-4.07-1.09c-2.28-1.39-3.73-4.08-4-7.68h14.62a.51.51,0,0,0,.5-.61c-1.21-6.26-4.49-9.45-9.57-9.45-6.41,0-11.14,5.11-11.14,12.12,0,6.84,4.47,11.4,10.93,11.4a10.41,10.41,0,0,0,6.48-2.07,10.08,10.08,0,0,0,3.42-5A.5.5,0,0,0,239,35.55ZM228.83,21.33c2.45,0,3.82,2,4.68,6.78h-8.94C224.57,23.73,226.08,21.33,228.83,21.33Z"/><path class="cls-1" d="M265.77,41l-1.62-1.72V10.23a.5.5,0,0,0-.62-.49l-7.77,1.92a.5.5,0,0,0-.23.84l1.83,1.84v6.19a7.85,7.85,0,0,0-2-.49h0l-.22,0-.23,0a10,10,0,0,0-1.1-.06c-6.84,0-11.95,5.45-11.95,12.81,0,6.24,3.69,10.71,8.86,10.71,2.4,0,4.25-1,6.48-3.65h.26l.48,3.12a.5.5,0,0,0,.6.42l7-1.47A.5.5,0,0,0,265.77,41Zm-8.41-2.75a3.3,3.3,0,0,1-2.5,1.08c-3.78,0-6.49-4.09-6.49-9.59,0-5,2.28-8,5.85-8a3.85,3.85,0,0,1,.48,0l.23,0a1.6,1.6,0,0,1,.23,0,4.71,4.71,0,0,1,2.2.88Z"/><path class="cls-1" d="M208.2,19.93c-2.4,0-4.26,1-6.49,3.69h-.26l-.31-3.2a.51.51,0,0,0-.62-.44l-7.37,1.88a.49.49,0,0,0-.22.84l1.82,1.78V49.11l-1.68,1.53a.43.43,0,0,0-.14.42.45.45,0,0,0,.44.35h9.53a.43.43,0,0,0,.27-.77l-1.56-1.44-.08-.07V42.89a6.78,6.78,0,0,0,2.18.49,11.14,11.14,0,0,0,1.31.07c6.88,0,12-5.41,12-12.77C217.06,24.44,213.32,19.93,208.2,19.93Zm-3.61,21.71h-.47l-.23,0-.22,0a4,4,0,0,1-2.14-.88V25.13a2.56,2.56,0,0,1,.75-.64,3.26,3.26,0,0,1,1.7-.44c3.79,0,6.54,4.05,6.54,9.59C210.52,38.64,208.24,41.64,204.59,41.64Z"/></g></g></svg>