<svg width="26" height="26" viewBox="0 0 26 26" fill="none" xmlns="http://www.w3.org/2000/svg">
<path d="M23.4 20.2H12.2L5.8 25V20.2H2.6C1.7168 20.2 1 19.4832 1 18.6V2.6C1 1.7168 1.7168 1 2.6 1H23.4C24.2832 1 25 1.7168 25 2.6V18.6C25 19.4832 24.2832 20.2 23.4 20.2Z" stroke="black" stroke-width="0.75" stroke-linecap="round" stroke-linejoin="round"/>
<path d="M17.9558 5C19.2817 5 20.3558 6.07413 20.3558 7.4C20.3558 8.72587 19.2817 9.8 17.9558 9.8C16.6299 9.8 15.5558 8.72587 15.5558 7.4C15.5558 6.07413 16.6299 5 17.9558 5Z" stroke="black" stroke-width="0.75" stroke-linecap="round" stroke-linejoin="round"/>
<path d="M22.1126 13C20.7867 10.7045 17.8502 9.9184 15.5547 11.2453C14.8262 11.6667 14.2203 12.2715 13.8 13" stroke="black" stroke-width="0.75" stroke-linecap="round" stroke-linejoin="round"/>
<path d="M8.99995 5C10.5466 5 11.8 6.25333 11.8 7.8C11.8 9.34667 10.5466 10.6 8.99995 10.6C7.45328 10.6 6.19995 9.34667 6.19995 7.8C6.19995 6.25333 7.45328 5 8.99995 5Z" stroke="black" stroke-width="0.75" stroke-linecap="round" stroke-linejoin="round"/>
<path d="M4.19995 16.2C4.19995 13.5493 6.34928 11.4 8.99995 11.4C11.6506 11.4 13.8 13.5493 13.8 16.2" stroke="black" stroke-width="0.75" stroke-linecap="round" stroke-linejoin="round"/>
</svg>
